<svg width="26" height="24" viewBox="0 0 26 24" fill="none" xmlns="http://www.w3.org/2000/svg">
<path d="M12.9993 5C4.73017 5 2.24501 11.617 2.22226 11.684L2.10742 12L2.22117 12.316C2.24501 12.383 4.73017 19 12.9993 19C21.2683 19 23.7535 12.383 23.7763 12.316L23.8911 12L23.7773 11.684C23.7535 11.617 21.2683 5 12.9993 5ZM12.9993 16C10.6094 16 8.66592 14.206 8.66592 12C8.66592 9.794 10.6094 8 12.9993 8C15.3891 8 17.3326 9.794 17.3326 12C17.3326 14.206 15.3891 16 12.9993 16Z" fill="#494646"/>
<path d="M13.0007 10C11.8263 10 10.834 10.916 10.834 12C10.834 13.084 11.8263 14 13.0007 14C14.175 14 15.1673 13.084 15.1673 12C15.1673 10.916 14.175 10 13.0007 10Z" fill="#494646"/>
</svg>
