<svg width="49" height="48" viewBox="0 0 49 48" fill="none" xmlns="http://www.w3.org/2000/svg">
<rect x="0.5" width="48" height="48" rx="24" fill="white"/>
<rect x="1" y="0.5" width="47" height="47" rx="23.5" stroke="black" stroke-opacity="0.1"/>
<g clip-path="url(#clip0_256_2123)">
<path d="M35.9433 24.2242C35.9433 23.2409 35.8635 22.5234 35.6909 21.7793H24.4629V26.2173H31.0535C30.9206 27.3202 30.2031 28.9811 28.6086 30.0972L28.5862 30.2458L32.1363 32.996L32.3822 33.0205C34.6411 30.9344 35.9433 27.8649 35.9433 24.2242Z" fill="#4285F4"/>
<path d="M24.4645 35.9178C27.6933 35.9178 30.4039 34.8548 32.3838 33.0211L28.6101 30.0978C27.6003 30.8021 26.2449 31.2937 24.4645 31.2937C21.302 31.2937 18.618 29.2076 17.6612 26.3242L17.5209 26.3361L13.8295 29.193L13.7812 29.3271C15.7478 33.2337 19.7872 35.9178 24.4645 35.9178Z" fill="#34A853"/>
<path d="M17.6594 26.3238C17.407 25.5797 17.2609 24.7824 17.2609 23.9586C17.2609 23.1347 17.407 22.3375 17.6461 21.5934L17.6394 21.4349L13.9018 18.5322L13.7795 18.5904C12.969 20.2115 12.5039 22.0319 12.5039 23.9586C12.5039 25.8853 12.969 27.7056 13.7795 29.3267L17.6594 26.3238Z" fill="#FBBC05"/>
<path d="M24.4645 16.624C26.71 16.624 28.2248 17.594 29.0885 18.4046L32.4635 15.1093C30.3907 13.1826 27.6933 12 24.4645 12C19.7872 12 15.7478 14.6841 13.7812 18.5906L17.6479 21.5936C18.618 18.7102 21.302 16.624 24.4645 16.624Z" fill="#EB4335"/>
</g>
<defs>
<clipPath id="clip0_256_2123">
<rect width="24" height="24" fill="white" transform="translate(12.5 12)"/>
</clipPath>
</defs>
</svg>
