<svg width="49" height="48" viewBox="0 0 49 48" fill="none" xmlns="http://www.w3.org/2000/svg">
<rect x="0.5" width="48" height="48" rx="24" fill="white"/>
<rect x="1" y="0.5" width="47" height="47" rx="23.5" stroke="black" stroke-opacity="0.1"/>
<path d="M29.5531 32.279C28.5731 33.229 27.5031 33.079 26.4731 32.629C25.3831 32.169 24.3831 32.149 23.2331 32.629C21.7931 33.249 21.0331 33.069 20.1731 32.279C15.2931 27.249 16.0131 19.589 21.5531 19.309C22.9031 19.379 23.8431 20.049 24.6331 20.109C25.8131 19.869 26.9431 19.179 28.2031 19.269C29.7131 19.389 30.8531 19.989 31.6031 21.069C28.4831 22.939 29.2231 27.049 32.0831 28.199C31.5131 29.699 30.7731 31.189 29.5431 32.289L29.5531 32.279ZM24.5331 19.249C24.3831 17.019 26.1931 15.179 28.2731 14.999C28.5631 17.579 25.9331 19.499 24.5331 19.249Z" fill="black"/>
</svg>
