<svg width="49" height="48" viewBox="0 0 49 48" fill="none" xmlns="http://www.w3.org/2000/svg">
<rect x="0.5" width="48" height="48" rx="24" fill="white"/>
<rect x="1" y="0.5" width="47" height="47" rx="23.5" stroke="black" stroke-opacity="0.1"/>
<g clip-path="url(#clip0_256_2129)">
<path d="M22.1024 33.5264V26.2524H19.3184C19.1739 26.2524 19.0353 26.195 18.9331 26.0928C18.8309 25.9906 18.7734 25.852 18.7734 25.7074V22.8304C18.7734 22.6859 18.8309 22.5473 18.9331 22.4451C19.0353 22.3429 19.1739 22.2854 19.3184 22.2854H22.0914V19.5004C22.0251 18.84 22.1042 18.173 22.3231 17.5464C22.542 16.9198 22.8955 16.3487 23.3586 15.8732C23.8218 15.3977 24.3834 15.0294 25.0041 14.7942C25.6248 14.5589 26.2895 14.4624 26.9514 14.5114H29.2714C29.4174 14.5112 29.5575 14.5682 29.6617 14.6704C29.7659 14.7725 29.8258 14.9115 29.8284 15.0574V17.4934C29.8253 17.6391 29.7652 17.7777 29.6611 17.8796C29.557 17.9814 29.4171 18.0385 29.2714 18.0384H27.8214C26.2554 18.0384 25.9544 18.7804 25.9544 19.8714V22.2844H29.6774C29.7548 22.2819 29.8318 22.2962 29.9031 22.3264C29.9744 22.3566 30.0382 22.402 30.0902 22.4594C30.1422 22.5168 30.181 22.5848 30.204 22.6587C30.227 22.7326 30.2336 22.8107 30.2234 22.8874L29.8864 25.7754C29.8696 25.9077 29.8048 26.0292 29.7043 26.1169C29.6039 26.2047 29.4748 26.2525 29.3414 26.2514H25.9774V33.5254C25.9791 33.6539 25.9549 33.7813 25.9065 33.9003C25.858 34.0193 25.7863 34.1273 25.6954 34.2181C25.6045 34.3089 25.4964 34.3806 25.3774 34.4289C25.2584 34.4772 25.1309 34.5012 25.0024 34.4994H23.0654C22.938 34.4997 22.8117 34.4746 22.694 34.4256C22.5764 34.3767 22.4696 34.3047 22.38 34.2141C22.2904 34.1235 22.2197 34.0159 22.172 33.8977C22.1244 33.7794 22.1007 33.6539 22.1024 33.5264Z" fill="#4285F4"/>
</g>
<defs>
<clipPath id="clip0_256_2129">
<rect width="12" height="21" fill="white" transform="translate(18.5 13.5)"/>
</clipPath>
</defs>
</svg>
